<svg width="19" height="18" viewBox="0 0 19 18" fill="none" xmlns="http://www.w3.org/2000/svg">
<path d="M7.48559 1.79241C8.24359 0.40253 10.2393 0.40253 10.9973 1.79241L12.2137 4.02278C12.5013 4.55023 13.0108 4.92043 13.6014 5.03102L16.0985 5.49864C17.6546 5.79004 18.2713 7.68812 17.1836 8.83852L15.4383 10.6845C15.0256 11.1211 14.8309 11.7201 14.9082 12.3159L15.2352 14.8353C15.4389 16.4052 13.8243 17.5783 12.3941 16.8994L10.0991 15.8099C9.55629 15.5523 8.92649 15.5523 8.38379 15.8099L6.08871 16.8994C4.65852 17.5783 3.04396 16.4052 3.24768 14.8353L3.57459 12.3159C3.6519 11.7201 3.45727 11.1211 3.04452 10.6845L1.2992 8.83852C0.211582 7.68812 0.828282 5.79004 2.38438 5.49864L4.88146 5.03102C5.47199 4.92043 5.98153 4.55023 6.26918 4.02278L7.48559 1.79241Z" stroke="#252432" stroke-width="1.5" stroke-linejoin="round"/>
</svg>
