<svg width="20" height="20" viewBox="0 0 20 20" fill="none" xmlns="http://www.w3.org/2000/svg">
<path d="M6.52059 9.5C6.9348 9.5 7.27059 9.1642 7.27059 8.75C7.27059 8.3358 6.9348 8 6.52059 8V9.5ZM6.51059 8C6.09637 8 5.76059 8.3358 5.76059 8.75C5.76059 9.1642 6.09637 9.5 6.51059 9.5V8ZM12.5205 9.5C12.9348 9.5 13.2705 9.1642 13.2705 8.75C13.2705 8.3358 12.9348 8 12.5205 8V9.5ZM12.5105 8C12.0963 8 11.7605 8.3358 11.7605 8.75C11.7605 9.1642 12.0963 9.5 12.5105 9.5V8ZM4.28868 6.5H14.7325V5H4.28868V6.5ZM16.9758 8.5774L17.5143 15.5774L19.0099 15.4624L18.4714 8.4624L16.9758 8.5774ZM15.2709 18H3.75022V19.5H15.2709V18ZM1.50685 15.5774L2.04531 8.5774L0.549729 8.4624L0.0112686 15.4624L1.50685 15.5774ZM3.75022 18C2.43957 18 1.40633 16.8842 1.50685 15.5774L0.0112686 15.4624C-0.156271 17.6404 1.56581 19.5 3.75022 19.5V18ZM17.5143 15.5774C17.6148 16.8842 16.5816 18 15.2709 18V19.5C17.4553 19.5 19.1774 17.6404 19.0099 15.4624L17.5143 15.5774ZM14.7325 6.5C15.9082 6.5 16.8857 7.40519 16.9758 8.5774L18.4714 8.4624C18.3211 6.50865 16.692 5 14.7325 5V6.5ZM4.28868 5C2.32917 5 0.700009 6.50865 0.549729 8.4624L2.04531 8.5774C2.13548 7.40519 3.11298 6.5 4.28868 6.5V5ZM11.7605 3.75V5.75H13.2605V3.75H11.7605ZM7.26059 5.75V3.75H5.76059V5.75H7.26059ZM9.51054 1.5C10.7532 1.5 11.7605 2.50736 11.7605 3.75H13.2605C13.2605 1.67893 11.5816 0 9.51054 0V1.5ZM9.51054 0C7.43952 0 5.76059 1.67893 5.76059 3.75H7.26059C7.26059 2.50736 8.26794 1.5 9.51054 1.5V0ZM6.52059 8H6.51059V9.5H6.52059V8ZM12.5205 8H12.5105V9.5H12.5205V8Z" fill="#252432"/>
</svg>
