<svg width="170" height="38" viewBox="0 0 170 38" fill="none" xmlns="http://www.w3.org/2000/svg">
<path d="M166.488 29.3223V7.91028H170V29.3223H166.488Z" fill="black"/>
<path d="M145.186 21.4969V7.91028H148.698V21.5585C148.698 24.8858 150.577 26.4571 153.535 26.4571C156.523 26.4571 158.403 24.8858 158.403 21.5585V7.91028H161.915V21.4969C161.915 26.95 157.971 29.5379 153.504 29.5379C149.006 29.5379 145.186 26.95 145.186 21.4969Z" fill="black"/>
<path d="M136.905 20.3879V29.3224H133.393V12.3469H136.905V14.8115C137.891 13.1171 139.585 12.0696 141.988 12.0696V15.705H141.095C138.507 15.705 136.905 16.7833 136.905 20.3879Z" fill="black"/>
<path d="M121.526 15.0272C119.153 15.0272 117.243 16.6293 116.873 19.3096H126.27C126.208 16.6909 124.144 15.0272 121.526 15.0272ZM129.474 24.2698C128.519 27.2274 125.839 29.5997 121.68 29.5997C116.812 29.5997 113.207 26.1491 113.207 20.8192C113.207 15.4893 116.658 12.0696 121.68 12.0696C126.517 12.0696 129.936 15.4277 129.936 20.4187C129.936 21.0041 129.905 21.5586 129.813 22.144H116.843C117.089 24.9476 119.092 26.6421 121.68 26.6421C123.836 26.6421 125.038 25.5946 125.685 24.2698H129.474Z" fill="black"/>
<path d="M103.469 24.6086V15.212H101.467V12.3468H103.469V8.12598H107.012V12.3468H111.141V15.212H107.012V24.6086C107.012 25.8717 107.505 26.3955 108.984 26.3955H111.141V29.3223H108.368C105.349 29.3223 103.469 28.0591 103.469 24.6086Z" fill="black"/>
<path d="M99.1199 24.5779C99.1199 27.4431 96.6244 29.5997 92.6193 29.5997C88.5526 29.5997 85.6874 27.1966 85.5333 24.1157H89.1687C89.292 25.5021 90.6167 26.6421 92.5577 26.6421C94.5911 26.6421 95.6694 25.7794 95.6694 24.6087C95.6694 21.2814 85.8106 23.1915 85.8106 16.9681C85.8106 14.257 88.3369 12.0696 92.342 12.0696C96.1931 12.0696 98.7194 14.1338 98.9043 17.5227H95.3921C95.2688 16.0439 94.1289 15.0272 92.2188 15.0272C90.3395 15.0272 89.3536 15.7974 89.3536 16.9373C89.3536 20.3571 98.9351 18.447 99.1199 24.5779Z" fill="black"/>
<path d="M64.4069 20.7576C64.4069 15.5201 67.9499 12.0696 72.4171 12.0696C75.2823 12.0696 77.2541 13.4252 78.3015 14.8115V12.3469H81.8445V29.3224H78.3015V26.7961C77.2232 28.2441 75.1899 29.5997 72.3555 29.5997C67.9499 29.5997 64.4069 25.9951 64.4069 20.7576ZM78.3015 20.8192C78.3015 17.1838 75.806 15.1196 73.1565 15.1196C70.5378 15.1196 68.0115 17.0914 68.0115 20.7576C68.0115 24.4238 70.5378 26.5496 73.1565 26.5496C75.806 26.5496 78.3015 24.4854 78.3015 20.8192Z" fill="black"/>
<path d="M49.722 29.3223V7.91028H62.3228V10.7755H53.2342V17.0912H60.3202V19.9564H53.2342V29.3223H49.722Z" fill="black"/>
<path d="M27.0361 0C32.6998 0 37.2909 4.59124 37.291 10.2549V27.0361C37.291 32.6999 32.6999 37.291 27.0361 37.291H10.2549C4.59124 37.2909 0 32.6998 0 27.0361V10.2549C0.000150686 4.59133 4.59133 0.000150682 10.2549 0H27.0361ZM19.6719 8.41504C19.5788 8.38273 19.4773 8.38207 19.3838 8.41309C19.2902 8.44418 19.2101 8.5057 19.1562 8.58691L12.1846 20.5674C12.1438 20.6324 12.1217 20.7078 12.1201 20.7842C12.1186 20.8604 12.1379 20.9354 12.1758 21.002C12.2138 21.0686 12.2688 21.1245 12.3359 21.1631C12.403 21.2017 12.4798 21.2217 12.5576 21.2217H18.2041L17.4424 28.4365C17.435 28.5324 17.4605 28.6279 17.5146 28.708C17.569 28.7882 17.6499 28.8485 17.7432 28.8789C17.8362 28.9091 17.9369 28.9083 18.0293 28.876C18.1218 28.8436 18.2003 28.7815 18.2529 28.7002L25.1094 16.7207C25.1491 16.6556 25.171 16.5808 25.1719 16.5049C25.1727 16.4291 25.1534 16.3541 25.1152 16.2881C25.0771 16.222 25.021 16.1671 24.9541 16.1289C24.8874 16.0908 24.8116 16.0704 24.7344 16.0703H19.002L19.9629 8.86719C19.9731 8.77086 19.9501 8.67372 19.8975 8.5918C19.8447 8.50981 19.765 8.44743 19.6719 8.41504Z" fill="black"/>
</svg>
