<svg width="12" height="12" viewBox="0 0 12 12" fill="none" xmlns="http://www.w3.org/2000/svg">
<path fill-rule="evenodd" clip-rule="evenodd" d="M3.34384 11.9268C4.2305 11.9807 5.1161 12.0019 6 11.9999C6.8838 12.0019 7.7695 11.9807 8.6562 11.9268C9.4029 11.8814 10.1113 11.6341 10.7019 11.1524C11.2708 10.6885 11.6277 10.0671 11.8053 9.371C11.9695 8.728 11.9783 8.0816 11.9863 7.4977L11.9865 7.4862C11.9932 6.9924 11.9988 6.497 12 6.0011V6V5.9989C11.9988 5.503 11.9932 5.0076 11.9865 4.5138L11.9863 4.5023C11.9783 3.91841 11.9694 3.27203 11.8053 2.62894C11.6277 1.93285 11.2708 1.3115 10.7019 0.847597C10.1113 0.365937 9.4029 0.118637 8.6562 0.0732366C7.7695 0.0193166 6.8838 -0.001933 6 0.000137003C5.1161 -0.001933 4.2305 0.0193166 3.34384 0.0732366C2.59713 0.118637 1.88872 0.365937 1.29805 0.847597C0.72915 1.3115 0.37226 1.93286 0.19463 2.62893C0.0305001 3.27213 0.02167 3.91861 0.0137 4.5025L0.0135498 4.5138C0.0067898 5.0076 0.00116 5.503 0 5.9989V6V6.0011C0.00116 6.497 0.0067898 6.9924 0.0135498 7.4862L0.0137 7.4975C0.02167 8.0814 0.0305001 8.7279 0.19463 9.3711C0.37226 10.0671 0.72915 10.6885 1.29805 11.1524C1.88872 11.6341 2.59713 11.8814 3.34384 11.9268ZM5.9989 11.0624C5.131 11.0644 4.265 11.0436 3.40075 10.991C2.82704 10.9561 2.31206 10.7696 1.89056 10.4259C1.49895 10.1065 1.23848 9.6699 1.10306 9.1393C0.96974 8.6168 0.95924 8.0767 0.95099 7.4734C0.94426 6.9811 0.93869 6.4902 0.93754 6C0.93869 5.5098 0.94426 5.0189 0.95099 4.5266C0.95924 3.92329 0.96974 3.38321 1.10306 2.86073C1.23848 2.33008 1.49895 1.89348 1.89056 1.57415C2.31205 1.23044 2.82704 1.0439 3.40075 1.00901C4.265 0.956447 5.131 0.935587 5.9989 0.937637H6H6.0011C6.8689 0.935587 7.735 0.956447 8.5992 1.00901C9.173 1.0439 9.6879 1.23043 10.1094 1.57414C10.501 1.89347 10.7615 2.33008 10.8969 2.86072C11.0302 3.3832 11.0407 3.92328 11.049 4.5266C11.0557 5.0189 11.0613 5.5097 11.0625 6C11.0613 6.4903 11.0557 6.9811 11.049 7.4734C11.0407 8.0767 11.0302 8.6168 10.8969 9.1393C10.7615 9.6699 10.501 10.1065 10.1094 10.4259C9.6879 10.7696 9.173 10.9561 8.5992 10.991C7.735 11.0436 6.8689 11.0644 6.0011 11.0624H6H5.9989Z" fill="#151515"/>
<path fill-rule="evenodd" clip-rule="evenodd" d="M3.08569 5.99999C3.08569 7.60949 4.3905 8.91429 6 8.91429C7.6095 8.91429 8.9143 7.60949 8.9143 5.99999C8.9143 4.39049 7.6095 3.08569 6 3.08569C4.3905 3.08569 3.08569 4.39049 3.08569 5.99999ZM6 7.98169C4.9055 7.98169 4.0183 7.09449 4.0183 5.99999C4.0183 4.90549 4.9055 4.01829 6 4.01829C7.0945 4.01829 7.9817 4.90549 7.9817 5.99999C7.9817 7.09449 7.0945 7.98169 6 7.98169Z" fill="#151515"/>
<path d="M9.9429 2.74284C9.9429 3.12154 9.6359 3.42856 9.2572 3.42856C8.8785 3.42856 8.5715 3.12154 8.5715 2.74284C8.5715 2.36415 8.8785 2.05713 9.2572 2.05713C9.6359 2.05713 9.9429 2.36415 9.9429 2.74284Z" fill="#151515"/>
</svg>
