<svg width="12" height="12" viewBox="0 0 12 12" fill="none" xmlns="http://www.w3.org/2000/svg">
<path d="M6 12C2.69063 12 0 9.3109 0 6.0023C0 2.68909 2.69063 0 6 0C9.3094 0 12 2.68909 12 5.9977C12 9.3062 9.3094 12 6 12ZM11.0578 6.8189C10.8844 6.7626 9.4734 6.3449 7.8656 6.5984C8.5359 8.438 8.8078 9.9398 8.8594 10.2495C10.0125 9.4752 10.8328 8.2456 11.0578 6.8189ZM8.0016 10.7235C7.9266 10.273 7.6266 8.7055 6.9094 6.8377C6.9 6.8424 6.8859 6.8471 6.8766 6.8471C3.98437 7.8561 2.94844 9.86 2.85469 10.0477C3.72188 10.7235 4.8141 11.1271 6 11.1271C6.7078 11.1318 7.3875 10.9863 8.0016 10.7235ZM2.19375 9.4329C2.31094 9.2358 3.71719 6.9081 6.3609 6.0493C6.4266 6.0258 6.4969 6.007 6.5625 5.9883C6.4359 5.6973 6.2953 5.4063 6.1453 5.1201C3.58594 5.885 1.10156 5.8522 0.87656 5.8475C0.87656 5.8991 0.87188 5.9507 0.87188 6.0023C0.87656 7.3211 1.37344 8.5225 2.19375 9.4329ZM0.98438 4.9558C1.21406 4.9605 3.32344 4.9699 5.7234 4.3316C4.875 2.82049 3.95625 1.55338 3.825 1.37036C2.38594 2.04615 1.31719 3.36957 0.98438 4.9558ZM4.8 1.02307C4.9406 1.21079 5.8734 2.4779 6.7125 4.0219C8.5359 3.33672 9.3047 2.30426 9.3984 2.17286C8.4938 1.37036 7.3031 0.88228 6 0.88228C5.5875 0.88228 5.1844 0.93391 4.8 1.02307ZM9.9656 2.76418C9.8578 2.90966 9 4.0125 7.1063 4.7869C7.2234 5.0309 7.3406 5.2796 7.4484 5.5284C7.4859 5.6175 7.5234 5.7067 7.5609 5.7912C9.2672 5.5753 10.9594 5.9226 11.1281 5.9554C11.1141 4.7493 10.6828 3.63707 9.9656 2.76418Z" fill="#151515"/>
</svg>
