<svg width="11" height="11" viewBox="0 0 11 11" fill="none" xmlns="http://www.w3.org/2000/svg">
<path d="M10.2 10.1999V6.46409C10.2 4.62809 9.8048 3.22559 7.6628 3.22559C6.63 3.22559 5.9415 3.78659 5.661 4.32209H5.6355V3.39139H3.6083V10.1999H5.7248V6.82109C5.7248 5.92859 5.8905 5.07439 6.987 5.07439C8.0708 5.07439 8.0835 6.08159 8.0835 6.87209V10.1871H10.2V10.1999Z" fill="#151515"/>
<path d="M0.16571 3.3916H2.28221V10.2001H0.16571V3.3916Z" fill="#151515"/>
<path d="M1.224 0C0.54825 0 0 0.54825 0 1.224C0 1.89975 0.54825 2.46075 1.224 2.46075C1.89975 2.46075 2.448 1.89975 2.448 1.224C2.448 0.54825 1.89975 0 1.224 0Z" fill="#151515"/>
</svg>
