<svg width="11" height="12" viewBox="0 0 11 12" fill="none" xmlns="http://www.w3.org/2000/svg">
<path d="M10.5373 3.00464C9.8514 3.00464 9.2185 2.77741 8.7103 2.39408C8.1275 1.95466 7.7087 1.31007 7.5608 0.56713C7.5242 0.38356 7.5045 0.19413 7.5026 0H5.5433V5.3539L5.5409 8.2865C5.5409 9.0705 5.0304 9.7353 4.3226 9.9691C4.1172 10.0369 3.8954 10.0691 3.6644 10.0564C3.3696 10.0402 3.0933 9.9512 2.85317 9.8076C2.34214 9.5019 1.99567 8.9475 1.98628 8.3132C1.97149 7.3219 2.77289 6.5137 3.7635 6.5137C3.959 6.5137 4.1468 6.5456 4.3226 6.6036V5.1403V4.6142C4.1372 4.5868 3.9485 4.5724 3.7576 4.5724C2.67336 4.5724 1.65929 5.0231 0.934433 5.8351C0.386553 6.4487 0.0579231 7.2315 0.0072131 8.0524C-0.0592169 9.1308 0.335384 10.1559 1.10062 10.9122C1.21306 11.0233 1.33113 11.1263 1.4546 11.2214C2.11069 11.7263 2.91279 12 3.7576 12C3.9485 12 4.1372 11.9859 4.3226 11.9585C5.1118 11.8416 5.84 11.4803 6.4146 10.9122C7.1207 10.2144 7.5108 9.2878 7.515 8.3017L7.505 3.92246C7.8418 4.1823 8.2101 4.3973 8.6054 4.5642C9.2202 4.8236 9.872 4.9551 10.5429 4.9548V3.53209V3.00417L10.5373 3.00464Z" fill="#151515"/>
</svg>
